<svg stroke="black" xmlns="http://www.w3.org/2000/svg" version="1.1" width="400" height="300" viewBox="0 0 350 300">
  <path id="roundedSquare" d="M50,70 h250 a50,50 0 0 1 50,50 v60 a50,50 0 0 1 -50,50 h-250 a50,50 0 0 1 -50,-50 v-60 a50,50 0 0 1 50,-50 z" stroke-linejoin="round" fill="none" stroke-width="20"/>
  <circle id="dotL" cx="50" cy="150" r="15" stroke-linejoin="round" fill="green" stroke-width="5"/>
  <circle id="dotL" cx="100" cy="150" r="15" stroke-linejoin="round" fill="green" stroke-width="5"/>
  <circle id="dotR" cx="150" cy="150" r="15" stroke-linejoin="round" fill="green" stroke-width="5"/>
  <path id="roundedSquare2" d="M210,125 h100 a20,20 0 0 1 20,20 v20 a20,20 0 0 1 -20,20 h-100 a20,20 0 0 1 -20,-20 v-20 a20,20 0 0 1 20,-20 z" stroke-linejoin="round" fill="green" stroke-width="10"/>
  <g transform="matrix(1 0 0 1 50 220)"  >
  <line style="stroke: rgb(0,0,0); stroke-width: 30; stroke-dasharray: none; stroke-linecap: butt; stroke-dashoffset: 0; stroke-linejoin: miter; stroke-miterlimit: 4; fill: rgb(0,0,0); fill-rule: nonzero; opacity: 1;"  x1="-80" y1="30" x2="300" y2="-150" />
  </g>
</svg>
